<svg width="24" height="24" viewBox="0 0 24 24" fill="none" xmlns="http://www.w3.org/2000/svg">
<path d="M17.5485 10.5173C17.2935 10.5323 17.127 10.4498 17.106 10.4355L15.8407 11.244C16.119 11.6805 16.6935 11.9768 17.3377 12.015C17.388 12.0173 17.4375 12.0173 17.4877 12.0173C18.3337 12.0173 19.1662 11.5898 19.7962 10.8285C20.871 9.52125 21.6262 8.136 21.6592 8.0775L21.999 7.4475L21.387 7.0785C17.988 5.03625 16.0462 6.006 15.369 6.51825C14.9453 6.83737 14.6213 7.27066 14.4351 7.76733C14.2488 8.264 14.2081 8.80347 14.3175 9.3225C13.62 9.76725 12.9255 10.3298 12.372 11.016C12.0525 10.2683 11.5545 9.59775 10.9747 9.006C11.0272 8.868 11.0625 8.73375 11.0857 8.634C11.0977 8.5815 11.109 8.53125 11.124 8.487C11.508 7.2015 10.9807 5.7015 9.8115 4.758C8.979 4.08675 6.615 2.763 2.64 4.95375L2.127 5.235L2.27325 5.7975C2.30325 5.91225 3.012 8.58375 4.42125 10.1483C5.03025 10.8255 5.79525 11.2058 6.636 11.247C6.6885 11.25 6.741 11.25 6.79125 11.25C7.73475 11.25 8.54325 10.8308 8.871 10.5323L7.863 9.42225C7.85175 9.4305 6.59175 10.3148 5.53725 9.14325C4.71975 8.238 4.16325 6.78525 3.89925 5.988C6.738 4.62 8.30925 5.47275 8.868 5.9235C9.52425 6.45375 9.84975 7.236 9.7155 7.91625C8.1 6.72 6.4185 6.0525 6.2835 6.003L5.74125 7.40025C7.275 7.99275 11.25 10.113 11.25 12.75V15.1088C10.677 15.2552 10.1603 15.5681 9.765 16.008C9.40941 15.8369 9.01962 15.7487 8.625 15.75C7.5525 15.75 6.63 16.395 6.22275 17.3205C6.02696 17.2736 5.82633 17.25 5.625 17.25C4.1775 17.25 3 18.4275 3 19.875V20.25H4.5V19.875C4.5 19.5766 4.61853 19.2905 4.8295 19.0795C5.04048 18.8685 5.32663 18.75 5.625 18.75C5.9265 18.75 6.1575 18.876 6.2985 18.9818L7.5 18.384V18.372C7.50178 18.0745 7.62097 17.7897 7.83165 17.5795C8.04233 17.3694 8.32745 17.251 8.625 17.25C8.9265 17.25 9.21075 17.37 9.4245 17.5875L10.6402 17.376C10.7599 17.1156 10.9514 16.8948 11.1923 16.7396C11.4332 16.5844 11.7134 16.5013 12 16.5C12.2705 16.5015 12.5355 16.5764 12.7667 16.7169C12.9978 16.8573 13.1865 17.0579 13.3125 17.2973L14.496 17.4788C14.646 17.3318 14.8447 17.25 15.0525 17.25C15.492 17.25 15.8527 17.61 15.8527 18.0495C15.8527 18.138 15.8347 18.2258 15.8002 18.3225L17.004 19.14C17.2027 18.9608 17.5365 18.75 18 18.75C18.8265 18.75 19.5 19.4235 19.5 20.25H21C21 18.5948 19.6552 17.25 18 17.25C17.742 17.25 17.487 17.2853 17.244 17.3498C17.1463 17.0458 16.9865 16.7654 16.7747 16.5264C16.563 16.2874 16.3039 16.095 16.0139 15.9614C15.7239 15.8278 15.4093 15.7559 15.09 15.7502C14.7708 15.7445 14.4538 15.8053 14.1592 15.9285C13.7745 15.53 13.2866 15.2462 12.75 15.1088V14.25H12.753V14.004C12.753 10.89 17.6512 9.399 17.7015 9.384L17.2792 7.9455C17.2027 7.96575 16.5907 8.15325 15.7852 8.523C15.8437 8.21175 16.005 7.9215 16.2772 7.71675C17.0715 7.113 18.4192 7.22775 19.9627 8.007C19.5641 8.65911 19.1218 9.28353 18.639 9.876C18.2257 10.377 17.8185 10.503 17.5485 10.5173ZM10.113 8.115L10.122 8.23275C10.0845 8.20275 10.0432 8.1735 10.005 8.14125C10.0402 8.133 10.0725 8.11875 10.113 8.115Z" fill="white"/>
</svg>
