<svg width="21" height="21" viewBox="0 0 21 21" fill="none" xmlns="http://www.w3.org/2000/svg">
<path d="M10.5 12.6C16.2988 12.6 21 14.7938 21 17.5V21H0V17.5C0 14.7938 4.7012 12.6 10.5 12.6ZM19.6 17.5C19.6 15.568 15.526 14 10.5 14C5.474 14 1.4 15.568 1.4 17.5V19.6H19.6V17.5ZM10.5 0C11.7996 0 13.0459 0.516249 13.9648 1.43518C14.8838 2.35411 15.4 3.60044 15.4 4.9C15.4 6.19956 14.8838 7.44589 13.9648 8.36482C13.0459 9.28375 11.7996 9.8 10.5 9.8C9.20044 9.8 7.95411 9.28375 7.03518 8.36482C6.11625 7.44589 5.6 6.19956 5.6 4.9C5.6 3.60044 6.11625 2.35411 7.03518 1.43518C7.95411 0.516249 9.20044 0 10.5 0ZM10.5 1.4C9.57174 1.4 8.6815 1.76875 8.02513 2.42513C7.36875 3.0815 7 3.97174 7 4.9C7 5.82826 7.36875 6.7185 8.02513 7.37487C8.6815 8.03125 9.57174 8.4 10.5 8.4C11.4283 8.4 12.3185 8.03125 12.9749 7.37487C13.6313 6.7185 14 5.82826 14 4.9C14 3.97174 13.6313 3.0815 12.9749 2.42513C12.3185 1.76875 11.4283 1.4 10.5 1.4Z" fill="white"/>
</svg>
